<?xml version="1.0" encoding="iso-8859-1"?>
<!-- Generator: Adobe Illustrator 17.1.0, SVG Export Plug-In . SVG Version: 6.00 Build 0)  -->
<!DOCTYPE svg PUBLIC "-//W3C//DTD SVG 1.1//EN" "http://www.w3.org/Graphics/SVG/1.1/DTD/svg11.dtd">
<svg version="1.1" id="Artwork" xmlns="http://www.w3.org/2000/svg" xmlns:xlink="http://www.w3.org/1999/xlink" x="0px" y="0px"
	 width="256px" height="256px" viewBox="0 0 256 256" style="enable-background:new 0 0 256 256;" xml:space="preserve">
<path d="M235.068,129.465c-6.192-24.028-20.454-43.45-42.392-57.727c-1.673-1.087-6.062-3.502-6.188-3.571l1.06-3.056
	c0.557-1.604-0.165-3.371-1.685-4.128c-9.478-4.717-33.644-11.346-57.863-11.415c-24.219,0.069-48.385,6.698-57.863,11.415
	c-1.52,0.756-2.241,2.524-1.685,4.128l1.06,3.056c-0.126,0.069-4.516,2.484-6.188,3.571c-21.938,14.277-36.201,33.699-42.392,57.727
	c-0.344,1.333,0.157,2.742,1.266,3.559l2.766,2.039c-3.407,30.423,5.968,57.092,7.92,62.219c2.149,5.644,7.472,9.15,13.891,9.15
	c6.197,0,14.049-3.347,16.643-10.695c0.023-0.065,6.016-18.105,11.172-24.135c0.628,0.577,1.445,0.895,2.284,0.895
	c0.565,0,1.139-0.142,1.665-0.442c6.742-3.833,15.051-6.054,24.722-6.621l1.295,3.732c0.434,1.251,1.559,2.133,2.878,2.254
	c0.316,0.029,1.154,0.107,7.104,0.107l1.277-0.001c3.955,0,6.952-2.963,7.844-7.771c0.12-0.485,2.56-13.544,4.341-13.544
	c1.781,0,4.221,13.059,4.341,13.544c0.891,4.809,3.888,7.771,7.844,7.771l1.277,0.001c5.95,0,6.789-0.077,7.104-0.107
	c1.318-0.122,2.444-1.004,2.878-2.254l1.295-3.732c9.671,0.567,17.981,2.788,24.722,6.621c0.527,0.299,1.1,0.442,1.665,0.442
	c0.838,0,1.656-0.318,2.284-0.895c5.156,6.029,8.627,13.884,10.924,23.265c2.904,11.865,10.695,11.565,16.892,11.565
	c6.419,0,11.742-3.506,13.891-9.15c1.952-5.127,11.327-31.796,7.92-62.219l2.766-2.039
	C234.911,132.207,235.412,130.798,235.068,129.465z M57.1,193.303l-0.078,0.274c-1.46,3.966-6.352,6.105-10.247,6.105
	c-3.657,0-6.421-1.75-7.583-4.801c-1.768-4.645-9.955-27.908-7.894-55.104L69.1,167.63C63.424,174.42,59.395,183.036,57.1,193.303z
	 M76.4,164.656L28.06,128.96c6.048-21.335,19.141-38.676,38.944-51.564c1.303-0.848,3.028-1.81,4.752-2.76l29.211,84.19
	C91.824,159.565,78.494,164.165,76.4,164.656z M145.829,164.756c-0.965,0.012-5.645,0.02-5.645,0.02
	c-0.636,0-5.247-21.895-12.185-21.895c-6.937,0-11.549,21.895-12.185,21.895c0,0-4.679-0.008-5.645-0.02l-34.33-98.942
	c10.162-4.182,31.356-9.433,52.159-9.496c20.803,0.063,41.997,5.314,52.159,9.496L145.829,164.756z M216.808,194.88
	c-1.162,3.051-3.926,4.801-7.583,4.801c-3.894,0-8.85,1.163-10.325-6.379c-1.826-9.334-6.324-18.883-12-25.673l37.801-27.854
	C226.763,166.972,218.576,190.235,216.808,194.88z M179.085,165.261c-6.842-3.539-14.908-5.696-24.053-6.436l29.211-84.19
	c1.724,0.95,3.449,1.913,4.752,2.76c19.803,12.888,32.897,30.229,38.944,51.564C227.94,128.96,180.973,163.813,179.085,165.261z"/>
</svg>
