<?xml version="1.0" encoding="iso-8859-1"?>
<!-- Generator: Adobe Illustrator 17.1.0, SVG Export Plug-In . SVG Version: 6.00 Build 0)  -->
<!DOCTYPE svg PUBLIC "-//W3C//DTD SVG 1.1//EN" "http://www.w3.org/Graphics/SVG/1.1/DTD/svg11.dtd">
<svg version="1.1" id="Artwork" xmlns="http://www.w3.org/2000/svg" xmlns:xlink="http://www.w3.org/1999/xlink" x="0px" y="0px"
	 width="256px" height="256px" viewBox="0 0 256 256" style="enable-background:new 0 0 256 256;" xml:space="preserve">
<path d="M223.489,122.513c-2.883,0-13.574-0.069-15.854-0.076l9.563-22.815c0.437-1.042,0.323-2.233-0.302-3.174
	c-0.626-0.941-1.681-1.506-2.81-1.506h-27.168l10.745-29.529c0.398-1.095,0.204-2.317-0.514-3.235
	c-0.718-0.917-1.861-1.401-3.017-1.275l-20.199,2.164l2.561-24.014c0.106-0.997-0.236-1.989-0.934-2.708
	c-0.698-0.719-1.678-1.092-2.678-1.015l-28.233,2.149l-4.354-12.433c-0.312-0.891-0.984-1.611-1.851-1.984
	c-0.868-0.373-1.852-0.366-2.714,0.02l-24.543,10.995l-0.423-1.309c-0.287-0.889-0.93-1.62-1.776-2.017
	c-0.846-0.398-1.819-0.426-2.687-0.08l-32.316,12.9c-1.6,0.639-2.463,2.381-2,4.041l2.141,7.681L52.69,55.48
	c-1.114,0.01-2.151,0.569-2.772,1.493c-0.621,0.925-0.746,2.097-0.333,3.131l8.702,21.831H40.039c-1.043,0-2.028,0.483-2.667,1.307
	c-0.639,0.825-0.861,1.899-0.601,2.909l9.2,35.723c-4.561-0.005-9.053-0.008-13.46-0.008c-1.864,0-3.375,1.511-3.375,3.375
	c0,23.013,0.65,41.838,8.828,57.197c7.267,13.649,20.109,24.116,42.295,34.246c-2.599,2.881-4.231,7.604-4.231,13.152
	c0,1.864,1.511,3.375,3.375,3.375h90.986c1.864,0,3.375-1.511,3.375-3.375c0-4.99-1.321-9.312-3.477-12.227
	c23.94-10.651,39.09-23.117,47.44-38.959c8.438-16.009,9.137-34.094,9.137-52.764C226.864,124.024,225.353,122.513,223.489,122.513z
	 M209.012,101.692l-8.686,20.722c-7.703-0.025-15.521-0.053-23.373-0.084l7.51-20.638H209.012z M169.78,122.302
	c-7.708-0.031-15.422-0.063-23.066-0.096v-0.344l20.199-51.253l22.557-2.417L169.78,122.302z M139.963,72.37l-0.037,49.805
	c-8.91-0.038-18.472-0.075-27.42-0.11V81.008L139.963,72.37z M167.067,63.803l-2.905,0.311c-1.249,0.134-2.32,0.95-2.78,2.118
	l-14.668,37.22V67.77c0-1.075-0.512-2.085-1.378-2.721c-0.866-0.636-1.985-0.821-3.009-0.498l-1.38,0.434l1.908-20.599l26.499-2.017
	L167.067,63.803z M135.138,30.744l2.702,7.715c-0.8,0.552-1.35,1.442-1.445,2.467l-2.432,26.255l-10.971,3.451l-9.72-30.094
	L135.138,30.744z M79.3,48.717l26.15-10.439l0.474,1.468c0.001,0.004,0.003,0.008,0.004,0.013l10.626,32.9l-8.435,2.654
	c-1.406,0.442-2.362,1.746-2.362,3.219v18.503L90.609,57.348c-0.503-1.318-1.76-2.177-3.183-2.171l-6.311,0.055L79.3,48.717z
	 M57.681,62.187l27.459-0.24l20.616,54.018v6.074c-6.472-0.025-12.921-0.048-19.316-0.069L74.292,84.275
	c-0.45-1.394-1.747-2.34-3.212-2.34h-5.527L57.681,62.187z M44.393,88.685h24.228l10.719,33.262
	c-8.959-0.027-17.786-0.048-26.397-0.062L44.393,88.685z M162.353,213.667c-0.012,0.005-0.023,0.011-0.035,0.016h-14.43
	c-1.864,0-3.375,1.511-3.375,3.375c0,1.864,1.511,3.375,3.375,3.375h15.425c0.999,0,2.717,2.267,3.403,6.029H83.075
	c0.687-3.762,2.405-6.029,3.404-6.029h35.76c1.864,0,3.375-1.511,3.375-3.375c0-1.864-1.511-3.375-3.375-3.375H90.26
	c-0.008-0.003-0.015-0.008-0.023-0.011c-25.22-10.511-39.072-20.801-46.315-34.406c-6.492-12.192-7.914-26.839-8.028-50.649
	c33.133,0.01,181.536,0.644,184.209,0.645C219.835,166.117,214.516,192.175,162.353,213.667z"/>
</svg>
