<?xml version="1.0" encoding="iso-8859-1"?>
<!-- Generator: Adobe Illustrator 17.1.0, SVG Export Plug-In . SVG Version: 6.00 Build 0)  -->
<!DOCTYPE svg PUBLIC "-//W3C//DTD SVG 1.1//EN" "http://www.w3.org/Graphics/SVG/1.1/DTD/svg11.dtd">
<svg version="1.1" id="Artwork" xmlns="http://www.w3.org/2000/svg" xmlns:xlink="http://www.w3.org/1999/xlink" x="0px" y="0px"
	 width="256px" height="256px" viewBox="0 0 256 256" style="enable-background:new 0 0 256 256;" xml:space="preserve">
<g>
	<path d="M233.121,94.713L215.44,78.308l-8.415-31.015c-0.385-1.417-1.641-2.423-3.108-2.488c-1.461-0.083-2.807,0.826-3.316,2.203
		l-7.71,20.9c-5.171-5.597-11.158-9.933-17.526-12.589c-11.463-4.782-23.812-4.129-35.711,1.887
		C98.416,78.058,36.976,115.814,36.28,116.38c-9.46,7.704-14.602,19.479-14.478,33.155c0.121,13.392,5.304,27.051,14.596,38.46
		c11.834,14.53,28.66,23.205,45.009,23.205c7.023,0,13.587-1.623,19.32-4.73c0.018-0.009,0.035-0.019,0.053-0.028
		c2.017-1.097,67.824-46.952,94.924-66.234c8.759-6.232,13.79-16.417,14.168-28.677c0.11-3.593-0.173-7.274-0.816-10.968h21.77
		c1.388,0,2.635-0.85,3.142-2.142C234.474,97.128,234.139,95.658,233.121,94.713z M41.632,183.733
		c-8.328-10.226-12.973-22.392-13.081-34.258c-0.104-11.583,4.154-21.477,11.992-27.86c0.605-0.493,1.231-0.956,1.87-1.399
		c0.313-0.195,1.252-0.78,2.74-1.699c4.78-2.615,10.297-3.979,16.227-3.979c14.34,0,29.21,7.745,39.776,20.718
		c8.328,10.225,12.973,22.392,13.08,34.258c0.101,11.228-3.447,20.679-10.985,27.448c-7.537,6.769-15.946,7.489-21.844,7.489
		C67.066,204.45,52.197,196.705,41.632,183.733z M191.79,134.708c-20.916,14.883-52.799,37.074-73.63,51.529
		c1.909-5.102,2.878-10.759,2.824-16.785c-0.121-13.392-5.304-27.051-14.596-38.46c-11.495-14.114-27.699-22.7-43.601-23.182
		c19.685-11.78,50.663-29.791,79.912-44.58c23.169-11.715,42.531,2.581,52.072,18.38C205.21,98.895,207.712,123.379,191.79,134.708z
		 M207.475,93.812c-1.579-5.378-3.904-10.688-6.925-15.691c-0.858-1.422-1.766-2.794-2.712-4.122l5.439-14.743l5.902,21.751
		c0.165,0.61,0.499,1.161,0.962,1.59l12.086,11.214H207.475z"/>
	<path d="M56.355,144.438c5.756,0,10.438-4.682,10.438-10.438c0-5.756-4.683-10.438-10.438-10.438
		c-5.756,0-10.438,4.682-10.438,10.438C45.917,139.755,50.6,144.438,56.355,144.438z M56.355,130.312
		c2.034,0,3.688,1.655,3.688,3.688c0,2.033-1.655,3.688-3.688,3.688c-2.034,0-3.688-1.654-3.688-3.688
		C52.667,131.967,54.322,130.312,56.355,130.312z"/>
	<path d="M81.227,155.655c5.756,0,10.438-4.682,10.438-10.438s-4.683-10.438-10.438-10.438c-5.756,0-10.438,4.682-10.438,10.438
		S75.471,155.655,81.227,155.655z M81.227,141.529c2.034,0,3.688,1.654,3.688,3.688c0,2.033-1.655,3.688-3.688,3.688
		c-2.034,0-3.688-1.655-3.688-3.688C77.538,143.184,79.193,141.529,81.227,141.529z"/>
	<path d="M66.793,162.943c0-5.755-4.683-10.438-10.438-10.438c-5.756,0-10.438,4.682-10.438,10.438s4.682,10.438,10.438,10.438
		C62.111,173.381,66.793,168.699,66.793,162.943z M56.355,166.631c-2.034,0-3.688-1.655-3.688-3.688
		c0-2.033,1.654-3.688,3.688-3.688c2.034,0,3.688,1.654,3.688,3.688C60.043,164.976,58.389,166.631,56.355,166.631z"/>
	<path d="M74.163,176.597c-5.755,0-10.438,4.682-10.438,10.438c0,5.755,4.683,10.438,10.438,10.438
		c5.756,0,10.438-4.682,10.438-10.438C84.602,181.28,79.919,176.597,74.163,176.597z M74.163,190.723
		c-2.033,0-3.688-1.655-3.688-3.688s1.655-3.688,3.688-3.688c2.034,0,3.688,1.655,3.688,3.688S76.197,190.723,74.163,190.723z"/>
	<path d="M106.304,170.006c0-5.755-4.683-10.438-10.438-10.438c-5.755,0-10.438,4.682-10.438,10.438
		c0,5.756,4.683,10.438,10.438,10.438C101.621,180.444,106.304,175.762,106.304,170.006z M92.177,170.006
		c0-2.033,1.655-3.688,3.688-3.688s3.688,1.654,3.688,3.688c0,2.034-1.654,3.688-3.688,3.688S92.177,172.04,92.177,170.006z"/>
</g>
</svg>
